<svg width="303" height="231" viewBox="0 0 303 231" fill="none" xmlns="http://www.w3.org/2000/svg">
<path d="M295.5 115.5C295.5 144.557 280.07 171.392 254.08 191.206C228.083 211.025 191.841 223.5 151.5 223.5C111.159 223.5 74.9168 211.025 48.9204 191.206C22.9303 171.392 7.5 144.557 7.5 115.5C7.5 86.4429 22.9303 59.6078 48.9204 39.7935C74.9168 19.9745 111.159 7.5 151.5 7.5C191.841 7.5 228.083 19.9745 254.08 39.7935C280.07 59.6078 295.5 86.4429 295.5 115.5Z" fill="white" stroke="#FBA700" stroke-width="15"/>
<g clip-path="url(#clip0_2311_144)">
<path d="M82 61V171H232V99.8932L207.391 117.94V152.953H106.609V79.0469H154.354L178.964 61H82ZM210.751 62.3898L156.479 102.196L137.088 87.9759L117.202 102.565L156.478 131.361L176.363 116.778L230.635 76.9718L210.75 62.3894L210.751 62.3898Z" fill="#FBA700"/>
</g>
<defs>
<clipPath id="clip0_2311_144">
<rect width="150" height="110" fill="white" transform="translate(82 61)"/>
</clipPath>
</defs>
</svg>
