<svg width="40" height="40" viewBox="0 0 40 40" fill="none" xmlns="http://www.w3.org/2000/svg">
<rect x="0.179688" width="39.59" height="39.59" rx="19.795" fill="#262626"/>
<path d="M20.1668 16.0078C22.3816 16.0078 24.2098 17.8359 24.2098 20.0508C24.2098 22.3008 22.3816 24.0938 20.1668 24.0938C17.9168 24.0938 16.1238 22.3008 16.1238 20.0508C16.1238 17.8359 17.9168 16.0078 20.1668 16.0078ZM20.1668 22.6875C21.6082 22.6875 22.7684 21.5273 22.7684 20.0508C22.7684 18.6094 21.6082 17.4492 20.1668 17.4492C18.6902 17.4492 17.5301 18.6094 17.5301 20.0508C17.5301 21.5273 18.7254 22.6875 20.1668 22.6875ZM25.2996 15.8672C25.2996 16.3945 24.8777 16.8164 24.3504 16.8164C23.823 16.8164 23.4012 16.3945 23.4012 15.8672C23.4012 15.3398 23.823 14.918 24.3504 14.918C24.8777 14.918 25.2996 15.3398 25.2996 15.8672ZM27.9715 16.8164C28.0418 18.1172 28.0418 22.0195 27.9715 23.3203C27.9012 24.5859 27.6199 25.6758 26.7059 26.625C25.7918 27.5391 24.6668 27.8203 23.4012 27.8906C22.1004 27.9609 18.198 27.9609 16.8973 27.8906C15.6316 27.8203 14.5418 27.5391 13.5926 26.625C12.6785 25.6758 12.3973 24.5859 12.327 23.3203C12.2566 22.0195 12.2566 18.1172 12.327 16.8164C12.3973 15.5508 12.6785 14.4258 13.5926 13.5117C14.5418 12.5977 15.6316 12.3164 16.8973 12.2461C18.198 12.1758 22.1004 12.1758 23.4012 12.2461C24.6668 12.3164 25.7918 12.5977 26.7059 13.5117C27.6199 14.4258 27.9012 15.5508 27.9715 16.8164ZM26.284 24.6914C26.7059 23.6719 26.6004 21.2109 26.6004 20.0508C26.6004 18.9258 26.7059 16.4648 26.284 15.4102C26.0027 14.7422 25.4754 14.1797 24.8074 13.9336C23.7527 13.5117 21.2918 13.6172 20.1668 13.6172C19.0066 13.6172 16.5457 13.5117 15.5262 13.9336C14.823 14.2148 14.2957 14.7422 14.0145 15.4102C13.5926 16.4648 13.698 18.9258 13.698 20.0508C13.698 21.2109 13.5926 23.6719 14.0145 24.6914C14.2957 25.3945 14.823 25.9219 15.5262 26.2031C16.5457 26.625 19.0066 26.5195 20.1668 26.5195C21.2918 26.5195 23.7527 26.625 24.8074 26.2031C25.4754 25.9219 26.0379 25.3945 26.284 24.6914Z" fill="white"/>
</svg>
