<svg width="25" height="24" viewBox="0 0 25 24" fill="none" xmlns="http://www.w3.org/2000/svg">
<path d="M18.91 8.78414C20.8926 8.78414 22.4998 7.26546 22.4998 5.39207C22.4998 3.51868 20.8926 2 18.91 2C16.9275 2 15.3203 3.51868 15.3203 5.39207C15.3203 7.26546 16.9275 8.78414 18.91 8.78414Z" stroke="#292D32" stroke-width="1.5" stroke-miterlimit="10"/>
<path d="M6.08973 16.4931C8.07229 16.4931 9.67949 14.9744 9.67949 13.1011C9.67949 11.2277 8.07229 9.70898 6.08973 9.70898C4.10717 9.70898 2.5 11.2277 2.5 13.1011C2.5 14.9744 4.10717 16.4931 6.08973 16.4931Z" stroke="#292D32" stroke-width="1.5" stroke-miterlimit="10"/>
<path d="M18.91 22C20.8926 22 22.4998 20.4813 22.4998 18.6079C22.4998 16.7345 20.8926 15.2158 18.91 15.2158C16.9275 15.2158 15.3203 16.7345 15.3203 18.6079C15.3203 20.4813 16.9275 22 18.91 22Z" stroke="#292D32" stroke-width="1.5" stroke-miterlimit="10"/>
<line y1="-0.5" x2="8.26491" y2="-0.5" transform="matrix(0.846108 -0.533011 0.576484 0.817109 9.49219 11.9121)" stroke="#292D32"/>
<line y1="-0.5" x2="7.3317" y2="-0.5" transform="matrix(0.953805 0.300427 -0.332667 0.943044 9.49219 15.2158)" stroke="#292D32"/>
</svg>
