<svg width="526" height="452" viewBox="0 0 526 452" fill="none" xmlns="http://www.w3.org/2000/svg">
<path d="M296.08 451.483C302.404 451.483 307.531 446.357 307.531 440.033C307.531 433.709 302.404 428.582 296.08 428.582C289.756 428.582 284.629 433.709 284.629 440.033C284.629 446.357 289.756 451.483 296.08 451.483Z" fill="#984408"/>
<path d="M397.5 407.315C402.017 407.315 405.679 403.653 405.679 399.136C405.679 394.619 402.017 390.957 397.5 390.957C392.983 390.957 389.321 394.619 389.321 399.136C389.321 403.653 392.983 407.315 397.5 407.315Z" fill="#984408"/>
<path d="M143.951 417.13C151.178 417.13 157.037 411.271 157.037 404.043C157.037 396.816 151.178 390.957 143.951 390.957C136.723 390.957 130.864 396.816 130.864 404.043C130.864 411.271 136.723 417.13 143.951 417.13Z" fill="#984408"/>
<path d="M38.4411 330.432C45.2168 330.432 50.7096 324.939 50.7096 318.163C50.7096 311.387 45.2168 305.895 38.4411 305.895C31.6654 305.895 26.1726 311.387 26.1726 318.163C26.1726 324.939 31.6654 330.432 38.4411 330.432Z" fill="#984408"/>
<path d="M438.395 351.7C443.816 351.7 448.21 347.306 448.21 341.885C448.21 336.465 443.816 332.07 438.395 332.07C432.975 332.07 428.581 336.465 428.581 341.885C428.581 347.306 432.975 351.7 438.395 351.7Z" fill="#984408"/>
<path d="M512.006 332.067C519.234 332.067 525.093 326.208 525.093 318.981C525.093 311.754 519.234 305.895 512.006 305.895C504.779 305.895 498.92 311.754 498.92 318.981C498.92 326.208 504.779 332.067 512.006 332.067Z" fill="#984408"/>
<path d="M444.939 264.999C449.456 264.999 453.118 261.337 453.118 256.82C453.118 252.302 449.456 248.641 444.939 248.641C440.421 248.641 436.76 252.302 436.76 256.82C436.76 261.337 440.421 264.999 444.939 264.999Z" fill="#984408"/>
<path d="M436.759 229.013C443.986 229.013 449.845 223.154 449.845 215.926C449.845 208.699 443.986 202.84 436.759 202.84C429.532 202.84 423.673 208.699 423.673 215.926C423.673 223.154 429.532 229.013 436.759 229.013Z" fill="#984408"/>
<path d="M480.926 170.124C485.443 170.124 489.105 166.462 489.105 161.945C489.105 157.427 485.443 153.766 480.926 153.766C476.409 153.766 472.747 157.427 472.747 161.945C472.747 166.462 476.409 170.124 480.926 170.124Z" fill="#984408"/>
<path d="M462.932 134.134C470.16 134.134 476.019 128.275 476.019 121.047C476.019 113.82 470.16 107.961 462.932 107.961C455.705 107.961 449.846 113.82 449.846 121.047C449.846 128.275 455.705 134.134 462.932 134.134Z" fill="#984408"/>
<path d="M29.4442 404.044C34.8648 404.044 39.259 399.649 39.259 394.229C39.259 388.808 34.8648 384.414 29.4442 384.414C24.0236 384.414 19.6294 388.808 19.6294 394.229C19.6294 399.649 24.0236 404.044 29.4442 404.044Z" fill="#984408"/>
<path d="M400.772 91.6044C407.096 91.6044 412.222 86.4777 412.222 80.1537C412.222 73.8297 407.096 68.7031 400.772 68.7031C394.448 68.7031 389.321 73.8297 389.321 80.1537C389.321 86.4777 394.448 91.6044 400.772 91.6044Z" fill="#984408"/>
<path d="M414.676 62.162C421.451 62.162 426.944 56.6692 426.944 49.8935C426.944 43.1178 421.451 37.625 414.676 37.625C407.9 37.625 402.407 43.1178 402.407 49.8935C402.407 56.6692 407.9 62.162 414.676 62.162Z" fill="#984408"/>
<path d="M296.08 16.358C300.597 16.358 304.259 12.6962 304.259 8.17901C304.259 3.66187 300.597 0 296.08 0C291.563 0 287.901 3.66187 287.901 8.17901C287.901 12.6962 291.563 16.358 296.08 16.358Z" fill="#984408"/>
<path d="M142.315 67.069C146.832 67.069 150.494 63.4071 150.494 58.8899C150.494 54.3728 146.832 50.7109 142.315 50.7109C137.798 50.7109 134.136 54.3728 134.136 58.8899C134.136 63.4071 137.798 67.069 142.315 67.069Z" fill="#984408"/>
<path d="M194.661 91.6044C200.985 91.6044 206.111 86.4777 206.111 80.1537C206.111 73.8297 200.985 68.7031 194.661 68.7031C188.337 68.7031 183.21 73.8297 183.21 80.1537C183.21 86.4777 188.337 91.6044 194.661 91.6044Z" fill="#984408"/>
<path d="M96.5121 88.3328C101.933 88.3328 106.327 83.9385 106.327 78.5179C106.327 73.0974 101.933 68.7031 96.5121 68.7031C91.0915 68.7031 86.6973 73.0974 86.6973 78.5179C86.6973 83.9385 91.0915 88.3328 96.5121 88.3328Z" fill="#984408"/>
<path d="M58.8892 26.1728C66.1166 26.1728 71.9756 20.3138 71.9756 13.0864C71.9756 5.85899 66.1166 0 58.8892 0C51.6617 0 45.8027 5.85899 45.8027 13.0864C45.8027 20.3138 51.6617 26.1728 58.8892 26.1728Z" fill="#984408"/>
<path d="M12.2685 165.217C19.0442 165.217 24.537 159.724 24.537 152.948C24.537 146.172 19.0442 140.68 12.2685 140.68C5.4928 140.68 0 146.172 0 152.948C0 159.724 5.4928 165.217 12.2685 165.217Z" fill="#984408"/>
<path d="M68.7037 206.112C73.2208 206.112 76.8827 202.45 76.8827 197.933C76.8827 193.416 73.2208 189.754 68.7037 189.754C64.1865 189.754 60.5247 193.416 60.5247 197.933C60.5247 202.45 64.1865 206.112 68.7037 206.112Z" fill="#984408"/>
<path d="M85.0618 287.899C92.2892 287.899 98.1482 282.04 98.1482 274.813C98.1482 267.586 92.2892 261.727 85.0618 261.727C77.8343 261.727 71.9753 267.586 71.9753 274.813C71.9753 282.04 77.8343 287.899 85.0618 287.899Z" fill="#984408"/>
<path d="M269.908 53.983C274.425 53.983 278.087 50.3212 278.087 45.804C278.087 41.2869 274.425 37.625 269.908 37.625C265.39 37.625 261.729 41.2869 261.729 45.804C261.729 50.3212 265.39 53.983 269.908 53.983Z" fill="#984408"/>
<path d="M297.716 88.3328C303.137 88.3328 307.531 83.9385 307.531 78.5179C307.531 73.0974 303.137 68.7031 297.716 68.7031C292.295 68.7031 287.901 73.0974 287.901 78.5179C287.901 83.9385 292.295 88.3328 297.716 88.3328Z" fill="#984408"/>
</svg>
