<svg width="24" height="24" viewBox="0 0 24 24" fill="none" xmlns="http://www.w3.org/2000/svg">
<path d="M6.00002 15H4.00002C2.89545 15 2.00002 14.1046 2.00002 13V6C2.00002 4.89543 2.89545 4 4.00002 4H6.00002C7.10459 4 8.00002 4.89543 8.00002 6V13C8.00002 14.1046 7.10459 15 6.00002 15Z" stroke="#28303F" stroke-width="1.5" stroke-linecap="round" stroke-linejoin="round"/>
<path d="M15.8769 3H12.2111C11.4214 3 10.6494 3.23375 9.99232 3.6718L8.44532 4.70313C8.16712 4.8886 8.00002 5.20083 8.00002 5.53518V13.7344C8.00002 13.9085 8.04543 14.0795 8.13178 14.2306L12 21H13.3287C15.3255 21 16.5164 18.7746 15.4089 17.1133L14 15H19.4385C20.7396 15 21.6943 13.7772 21.3788 12.5149L19.7575 6.02986C19.3123 4.24919 17.7124 3 15.8769 3Z" stroke="#28303F" stroke-width="1.5" stroke-linecap="round" stroke-linejoin="round"/>
</svg>
