<svg width="41" height="40" viewBox="0 0 41 40" fill="none" xmlns="http://www.w3.org/2000/svg">
<rect x="0.769531" width="39.59" height="39.59" rx="19.795" fill="#CD201F"/>
<path d="M29.9004 15.4453C30.3223 16.9219 30.3223 20.0859 30.3223 20.0859C30.3223 20.0859 30.3223 23.2148 29.9004 24.7266C29.6895 25.5703 29.0215 26.2031 28.2129 26.4141C26.7012 26.8008 20.7246 26.8008 20.7246 26.8008C20.7246 26.8008 14.7129 26.8008 13.2012 26.4141C12.3926 26.2031 11.7246 25.5703 11.5137 24.7266C11.0918 23.2148 11.0918 20.0859 11.0918 20.0859C11.0918 20.0859 11.0918 16.9219 11.5137 15.4453C11.7246 14.6016 12.3926 13.9336 13.2012 13.7227C14.7129 13.3008 20.7246 13.3008 20.7246 13.3008C20.7246 13.3008 26.7012 13.3008 28.2129 13.7227C29.0215 13.9336 29.6895 14.6016 29.9004 15.4453ZM18.7559 22.9336L23.748 20.0859L18.7559 17.2383V22.9336Z" fill="white"/>
</svg>
