<svg width="40" height="41" viewBox="0 0 40 41" fill="none" xmlns="http://www.w3.org/2000/svg">
<rect x="0.5" y="1" width="39" height="39" rx="19.5" stroke="#984408"/>
<path d="M15.6022 25.654C14.4962 25.654 13.6189 25.22 12.9702 24.352C12.3215 23.4793 11.9972 22.189 11.9972 20.481C11.9972 19.3283 12.1465 18.3623 12.4452 17.583C12.7439 16.8037 13.1639 16.218 13.7052 15.826C14.2465 15.434 14.8835 15.238 15.6162 15.238C16.7129 15.238 17.5855 15.679 18.2342 16.561C18.8875 17.4383 19.2142 18.738 19.2142 20.46C19.2142 22.1727 18.8899 23.4677 18.2412 24.345C17.5925 25.2177 16.7129 25.654 15.6022 25.654ZM15.6162 24.534C16.3395 24.534 16.8855 24.2167 17.2542 23.582C17.6275 22.9427 17.8142 21.9043 17.8142 20.467C17.8142 19.0017 17.6252 17.947 17.2472 17.303C16.8739 16.6543 16.3279 16.33 15.6092 16.33C14.8952 16.33 14.3445 16.6567 13.9572 17.31C13.5745 17.9587 13.3832 19.011 13.3832 20.467C13.3832 21.8997 13.5745 22.9357 13.9572 23.575C14.3399 24.2143 14.8929 24.534 15.6162 24.534ZM25.2881 25.5V22.917H20.5211V21.734L25.2391 15.378H26.5551V21.776H28.2351V22.917H26.5551V25.5H25.2881ZM21.7601 21.776H25.2601V17.079L21.7601 21.776Z" fill="#984408"/>
</svg>
